<?xml version="1.0" standalone="no"?>
<!DOCTYPE svg PUBLIC "-//W3C//DTD SVG 20010904//EN"
 "http://www.w3.org/TR/2001/REC-SVG-20010904/DTD/svg10.dtd">
<svg version="1.0" xmlns="http://www.w3.org/2000/svg"
 width="300.000000pt" height="300.000000pt" viewBox="0 0 300.000000 300.000000"
 preserveAspectRatio="xMidYMid meet">
<metadata>
Created by potrace 1.14, written by Peter Selinger 2001-2017
</metadata>
<g transform="translate(0.000000,300.000000) scale(0.100000,-0.100000)"
fill="#000000" stroke="none">
<path d="M746 2987 c-16 -11 -19 -26 -18 -75 0 -33 6 -70 12 -82 6 -12 10 -23
8 -24 -2 -1 -16 -6 -32 -11 -39 -13 -46 -38 -30 -114 18 -86 63 -157 132 -208
l57 -42 1 -116 c0 -105 -1 -115 -18 -115 -28 0 -90 -28 -116 -53 -84 -78 -82
-221 4 -296 32 -28 88 -51 127 -51 11 0 17 -8 18 -22 4 -140 115 -330 245
-419 39 -26 42 -32 41 -69 l-2 -40 -95 -1 c-110 -1 -120 -2 -165 -23 -68 -33
-134 -123 -135 -186 0 -37 -11 -47 -54 -53 -101 -14 -237 -118 -295 -226 -49
-92 -53 -131 -55 -458 l-1 -303 50 0 51 0 1 307 c1 289 2 311 22 363 24 63 87
141 141 175 32 20 128 55 151 55 4 0 70 -93 146 -207 l139 -208 -1 -230 c0
-126 1 -236 3 -243 3 -7 22 -12 51 -12 l47 0 1 340 c0 188 2 343 5 345 3 3 25
-6 49 -20 150 -83 326 -85 482 -5 31 17 59 30 60 30 2 0 3 -154 3 -343 l-1
-342 51 -3 51 -3 0 243 0 244 114 169 c63 94 124 187 137 208 26 41 32 42 120
13 88 -29 180 -125 212 -221 11 -30 14 -116 15 -345 l1 -305 51 -3 50 -3 -2
318 c-2 344 -4 362 -62 461 -55 96 -188 193 -285 209 -42 6 -47 11 -54 51 -10
58 -27 93 -62 131 -55 59 -108 78 -227 80 -55 1 -102 7 -106 12 -13 21 1 74
23 89 25 15 132 121 159 156 41 54 96 200 102 272 1 16 8 22 24 22 71 0 156
68 178 143 34 116 -36 232 -153 253 -15 3 -28 7 -31 9 -2 3 -5 76 -6 162 -2
184 -7 214 -50 308 -40 88 -99 163 -167 213 -66 48 -125 76 -210 99 -13 4
-216 8 -453 10 -358 3 -433 2 -449 -10z m889 -102 c149 -39 265 -146 315 -289
36 -107 89 -96 -468 -96 -538 0 -541 0 -616 62 -21 17 -49 54 -62 82 l-24 51
87 5 c72 4 88 8 98 25 9 13 10 28 4 43 -9 23 -13 26 -62 37 -36 7 -77 48 -77
75 0 20 4 20 373 20 303 0 384 -3 432 -15z m-570 -507 c-10 -33 -56 -104 -74
-115 -14 -9 -16 -1 -14 61 1 39 2 72 2 74 1 1 22 2 47 2 42 0 45 -1 39 -22z
m729 -28 c27 -81 68 -139 143 -199 l42 -33 -4 -133 c-6 -198 -19 -274 -64
-364 -169 -334 -640 -361 -843 -47 -67 104 -90 217 -91 444 0 98 1 104 24 119
73 50 147 155 164 231 l7 32 303 0 303 0 16 -50z m182 -24 c0 -61 -3 -73 -14
-64 -21 18 -51 64 -67 102 l-15 36 48 0 49 0 -1 -74z m-1100 -326 c1 -56 -3
-100 -8 -100 -19 0 -68 31 -78 49 -25 49 -3 122 44 141 40 16 41 12 42 -90z
m1273 65 c37 -37 34 -100 -8 -137 -57 -51 -66 -42 -66 72 l0 101 25 -6 c14 -3
36 -17 49 -30z m-794 -802 c76 -18 175 -14 295 13 l25 5 1 -115 c2 -128 14
-164 71 -201 29 -19 31 -24 29 -76 -2 -64 -9 -76 -74 -119 -153 -101 -365 -86
-495 34 -23 22 -28 35 -30 82 -2 50 0 57 23 71 14 8 37 31 50 50 22 33 25 47
26 152 1 64 3 118 3 120 1 2 13 0 29 -4 15 -4 36 -9 47 -12z m-180 -153 c-2
-44 -19 -70 -44 -70 -10 0 -26 -6 -36 -14 -16 -12 -18 -30 -19 -184 0 -94 -3
-168 -7 -164 -4 4 -48 70 -99 147 -91 138 -92 140 -88 192 5 56 22 83 73 114
24 15 50 19 126 19 l96 0 -2 -40z m826 19 c49 -24 79 -83 73 -138 -3 -24 -35
-82 -96 -174 -50 -75 -93 -135 -96 -132 -2 2 -5 76 -6 163 -1 170 -7 192 -51
192 -38 0 -54 37 -46 103 1 4 42 7 91 7 72 0 99 -4 131 -21z"/>
<path d="M1133 2140 c-25 -10 -50 -46 -53 -75 -4 -42 1 -57 29 -86 40 -40 89
-40 133 0 84 75 -3 204 -109 161z"/>
<path d="M1734 2140 c-55 -22 -72 -108 -31 -155 14 -17 36 -28 63 -32 36 -5
46 -1 74 24 86 77 1 206 -106 163z"/>
<path d="M1420 2092 c-38 -84 -90 -226 -90 -247 0 -35 27 -45 117 -45 l79 0 1
49 2 50 -39 3 -39 3 13 30 c36 81 56 139 49 146 -5 5 -24 15 -44 23 -36 15
-36 15 -49 -12z"/>
<path d="M1565 1764 c-50 -38 -110 -61 -170 -63 -20 -1 -22 -16 -16 -88 3 -42
186 16 259 80 l22 21 -32 33 c-36 38 -36 38 -63 17z"/>
<path d="M946 487 c-17 -12 -19 -31 -19 -187 0 -157 2 -174 18 -187 27 -19 53
-16 69 10 20 32 20 322 0 355 -16 25 -42 28 -68 9z"/>
<path d="M1946 487 c-18 -13 -19 -29 -19 -187 -1 -157 1 -174 18 -186 24 -18
36 -18 61 0 17 13 19 28 20 174 2 169 -5 205 -41 210 -11 1 -29 -4 -39 -11z"/>
</g>
</svg>
